<svg xmlns="http://www.w3.org/2000/svg" width="256" height="256" viewBox="0 0 320 120" role="img" aria-label="Sahat Almajd Logo">
  <defs>
    <linearGradient id="gold" x1="0" y1="0" x2="1" y2="1">
      <stop offset="0" stop-color="#c4b389"/>
      <stop offset="1" stop-color="#b49a6f"/>
    </linearGradient>
  </defs>
  <g transform="translate(10,10)">
    <g>
      <path d="M40 0 h60 a10 10 0 0 1 10 10 v52 a22 22 0 0 1 -12 20 l-38 22 -38 -22 a22 22 0 0 1 -12 -20 V10 a10 10 0 0 1 10 -10 z" fill="url(#gold)"/>
      <path d="M62 22 c18 -10 36 12 30 28 c-2 6 -6 10 -12 12 c-3 1 -6 4 -7 7 c-3 8 -11 11 -18 9 c-6 -2 -10 -7 -10 -14 c0 -6 3 -12 8 -16 c-6 0 -10 -2 -12 -6 c-3 -6 -2 -13 3 -18 c5 -5 11 -6 18 -2 z" fill="#1b1b1b" opacity="0.85"/>
      <path d="M45 62 c20 -6 32 -12 48 -26" fill="none" stroke="#1b1b1b" stroke-width="2" stroke-linecap="round" opacity="0.35"/>
      <path d="M50 72 c24 -8 40 -18 58 -36" fill="none" stroke="#1b1b1b" stroke-width="2" stroke-linecap="round" opacity="0.25"/>
    </g>
    <g transform="translate(120,18)">
      <text x="0" y="0" font-family="Segoe UI, Tahoma, sans-serif" font-size="28" font-weight="700" fill="#1b1b1b">ساحة المجد</text>
      <text x="2" y="28" font-family="Segoe UI, Tahoma, sans-serif" font-size="14" letter-spacing="1.5" fill="#495057">SAHAT ALMAJD</text>
    </g>
  </g>
</svg>